<?xml version="1.0" standalone="no"?>
<!DOCTYPE svg PUBLIC "-//W3C//DTD SVG 20010904//EN"
 "http://www.w3.org/TR/2001/REC-SVG-20010904/DTD/svg10.dtd">
<svg version="1.0" xmlns="http://www.w3.org/2000/svg"
 width="220.000000pt" height="73.000000pt" viewBox="0 0 220.000000 73.000000"
 preserveAspectRatio="xMidYMid meet">

<g transform="translate(0.000000,73.000000) scale(0.100000,-0.100000)"
fill="#000000" stroke="none">
<path d="M1857 628 c3 -51 6 -94 7 -95 6 -7 147 31 196 53 64 29 120 82 120
114 0 19 -8 20 -165 20 l-165 0 7 -92z"/>
<path d="M105 571 c-85 -24 -105 -37 -105 -67 0 -38 42 -53 81 -30 17 10 33
15 36 12 7 -6 -32 -162 -53 -213 -10 -26 -19 -33 -39 -33 -23 0 -26 -4 -23
-27 2 -22 13 -33 48 -50 140 -71 293 39 307 221 8 100 -38 171 -125 196 -47
13 -54 12 -127 -9z m141 -72 c15 -16 19 -35 18 -83 -2 -103 -60 -206 -117
-206 -24 0 -22 8 28 147 21 56 35 109 32 118 -4 8 -18 15 -32 15 -16 0 -25 6
-25 15 0 24 73 20 96 -6z"/>
<path d="M1653 502 l-123 -15 0 -48 c0 -40 4 -51 31 -73 37 -31 139 -63 234
-73 l70 -8 3 -43 3 -42 37 5 c66 9 273 35 283 35 5 0 9 19 9 43 0 32 -6 49
-22 64 -50 46 -136 75 -261 89 l-57 6 -6 39 c-8 46 -3 45 -201 21z"/>
<path d="M660 435 c-7 -9 -15 -37 -18 -64 -5 -58 -51 -155 -74 -159 -23 -4
-23 25 -3 92 21 70 20 103 -6 111 -11 4 -23 5 -25 2 -3 -2 -19 -49 -37 -103
-27 -83 -36 -100 -54 -102 -28 -4 -31 24 -8 88 23 66 16 120 -17 120 -15 0
-36 -57 -48 -132 -20 -121 11 -169 80 -127 31 19 32 19 63 1 54 -33 96 -2 127
94 28 84 73 123 50 43 -24 -84 4 -159 53 -142 26 8 54 8 82 -1 14 -5 33 1 57
18 l36 24 6 -23 c7 -27 30 -35 68 -22 26 8 63 69 83 137 9 29 24 50 36 50 5 0
6 -26 3 -58 -11 -98 28 -144 108 -128 53 10 99 46 120 92 10 24 23 46 29 50
17 10 31 -11 32 -47 2 -32 0 -34 -38 -39 -35 -4 -40 -8 -40 -30 0 -18 7 -27
27 -34 54 -19 178 51 178 100 0 24 -14 32 -25 14 -13 -20 -27 -9 -50 43 -14
30 -25 71 -25 96 0 35 -3 42 -16 37 -9 -3 -17 -6 -19 -6 -2 0 -15 -31 -30 -69
-32 -86 -108 -164 -153 -159 -43 5 -39 32 8 53 50 22 90 68 90 101 0 54 -79
85 -126 49 -10 -8 -29 -15 -41 -15 -18 0 -23 6 -23 24 0 14 -4 27 -9 30 -19
12 -40 -23 -55 -92 -20 -95 -43 -142 -67 -142 -24 0 -24 21 1 100 11 34 20 66
20 71 0 10 -29 39 -40 39 -15 0 -37 -51 -45 -104 -7 -54 -23 -86 -42 -86 -18
0 -16 26 4 79 l17 44 -37 33 c-40 37 -72 43 -103 19 -31 -23 -55 -18 -67 15
-13 34 -19 36 -37 15z m600 -74 c0 -24 -37 -71 -56 -71 -19 0 -18 40 2 68 19
27 54 30 54 3z m-440 -24 c0 -42 -40 -121 -62 -125 -35 -7 -18 93 24 146 20
23 38 13 38 -21z"/>
<path d="M1755 172 c-117 -34 -205 -91 -218 -141 -5 -21 -2 -21 164 -21 l170
0 -3 88 c-3 85 -4 87 -28 89 -14 1 -52 -6 -85 -15z"/>
</g>
</svg>
