<svg width="40" height="40" viewBox="0 0 40 40" fill="none" xmlns="http://www.w3.org/2000/svg">
<path fill-rule="evenodd" clip-rule="evenodd" d="M11.5175 7.76717e-07H28.4826C30.0926 -2.21946e-05 31.4213 -4.1085e-05 32.5037 0.0795905C33.6279 0.162298 34.6613 0.339803 35.6319 0.785152C37.1372 1.47579 38.3611 2.57781 39.1281 3.93326C39.6226 4.80731 39.8198 5.73784 39.9116 6.75013C40 7.72477 40 8.92121 40 10.3709V20.2446C40 21.6943 40 22.8907 39.9116 23.8654C39.8198 24.8777 39.6226 25.8082 39.1281 26.6822C38.3611 28.0377 37.1372 29.1397 35.6319 29.8303C34.6613 30.2757 33.6279 30.4532 32.5037 30.5359C31.4213 30.6155 30.0926 30.6155 28.4827 30.6155H24.1722C23.9396 30.6155 23.8242 30.6158 23.7403 30.619L23.7342 30.6192L23.7293 30.6226C23.663 30.669 23.5747 30.7359 23.3971 30.8712L12.6087 39.0911C12.5964 39.1006 12.5837 39.1102 12.5708 39.1201C12.3966 39.253 12.1756 39.4215 11.9719 39.5503C11.7886 39.6662 11.2719 39.9863 10.551 39.9995C9.78011 40.0137 9.04515 39.7067 8.5592 39.1677C8.10474 38.6636 8.04239 38.1016 8.02222 37.9007C7.9998 37.6775 7.99997 37.4168 8.0001 37.2112C8.00011 37.1959 8.00012 37.181 8.00012 37.1664V30.6043C7.31744 30.5866 6.73106 30.5417 6.19174 30.429C3.21863 29.8078 0.89714 27.7174 0.207217 25.0402C-0.00106812 24.232 -0.00058271 23.3064 7.17468e-05 22.0591C0.00010894 21.9882 0.00014661 21.9163 0.00014661 21.8433L0.000145656 10.3709C0.000120146 8.92123 9.91613e-05 7.72478 0.0885335 6.75013C0.180384 5.73784 0.377512 4.80731 0.872091 3.93326C1.63908 2.57781 2.86292 1.47579 4.36821 0.785152C5.33887 0.339803 6.37228 0.162298 7.49647 0.0795905C8.57885 -4.1085e-05 9.90757 -2.21946e-05 11.5175 7.76717e-07ZM7.82219 3.66945C6.94537 3.73396 6.49696 3.85089 6.18416 3.9944C5.43152 4.33972 4.8196 4.89073 4.4361 5.56846C4.27673 5.85012 4.14687 6.25389 4.07523 7.04344C4.00169 7.85401 4.00013 8.90266 4.00013 10.4453V21.8433C4.00013 23.402 4.01318 23.8749 4.10367 24.226C4.44863 25.5646 5.60937 26.6098 7.09593 26.9205C7.48586 27.0019 8.01105 27.0137 9.74205 27.0137L9.74585 27.0137C9.76408 27.0136 9.82508 27.0135 9.88498 27.0157C9.95934 27.0183 10.1121 27.0262 10.2974 27.065C11.115 27.2358 11.7534 27.8107 11.9432 28.5469C11.9862 28.7137 11.9949 28.8513 11.9979 28.9183C12.0003 28.9722 12.0001 29.0271 12.0001 29.0435L12.0001 29.047V34.8366L20.8134 28.1216C20.8358 28.1045 20.8587 28.0869 20.8823 28.0689C21.1395 27.872 21.4635 27.6239 21.8446 27.4402C22.1753 27.2807 22.5293 27.164 22.8962 27.0933C23.3189 27.0119 23.7442 27.0128 24.0819 27.0135C24.1127 27.0136 24.1429 27.0137 24.1722 27.0137H28.4C30.1132 27.0137 31.2778 27.0123 32.178 26.946C33.0548 26.8815 33.5032 26.7646 33.816 26.6211C34.5686 26.2758 35.1805 25.7248 35.564 25.047C35.7234 24.7654 35.8533 24.3616 35.9249 23.5721C35.9985 22.7615 36 21.7128 36 20.1702V10.4453C36 8.90267 35.9985 7.85401 35.9249 7.04344C35.8533 6.25389 35.7234 5.85012 35.564 5.56846C35.1805 4.89073 34.5686 4.33972 33.816 3.9944C33.5032 3.85089 33.0548 3.73396 32.178 3.66945C31.2778 3.60323 30.1132 3.60183 28.4 3.60183H11.6001C9.88695 3.60183 8.72237 3.60323 7.82219 3.66945Z" fill="white"/>
</svg>
