<svg width="40" height="40" viewBox="0 0 40 40" fill="none" xmlns="http://www.w3.org/2000/svg">
<g clip-path="url(#clip0_54_807)">
<path d="M8.23325 8.33337C8.23325 9.65886 7.15874 10.7334 5.83325 10.7334C4.50777 10.7334 3.43325 9.65886 3.43325 8.33337C3.43325 7.00789 4.50777 5.93337 5.83325 5.93337C7.15874 5.93337 8.23325 7.00789 8.23325 8.33337ZM8.23325 20C8.23325 21.3255 7.15874 22.4 5.83325 22.4C4.50777 22.4 3.43325 21.3255 3.43325 20C3.43325 18.6746 4.50777 17.6 5.83325 17.6C7.15874 17.6 8.23325 18.6746 8.23325 20ZM8.23325 31.6667C8.23325 32.9922 7.15874 34.0667 5.83325 34.0667C4.50777 34.0667 3.43325 32.9922 3.43325 31.6667C3.43325 30.3412 4.50777 29.2667 5.83325 29.2667C7.15874 29.2667 8.23325 30.3412 8.23325 31.6667ZM11.7666 8.33337C11.7666 7.46813 12.468 6.76671 13.3333 6.76671H34.9999C35.8652 6.76671 36.5666 7.46813 36.5666 8.33337C36.5666 9.19862 35.8652 9.90004 34.9999 9.90004H13.3333C12.468 9.90004 11.7666 9.19862 11.7666 8.33337ZM11.7666 20C11.7666 19.1348 12.468 18.4334 13.3333 18.4334H34.9999C35.8652 18.4334 36.5666 19.1348 36.5666 20C36.5666 20.8653 35.8652 21.5667 34.9999 21.5667H13.3333C12.468 21.5667 11.7666 20.8653 11.7666 20ZM11.7666 31.6667C11.7666 30.8015 12.468 30.1 13.3333 30.1H34.9999C35.8652 30.1 36.5666 30.8015 36.5666 31.6667C36.5666 32.532 35.8652 33.2334 34.9999 33.2334H13.3333C12.468 33.2334 11.7666 32.532 11.7666 31.6667Z" fill="white" stroke="black" stroke-width="0.2"/>
</g>
<defs>
<clipPath id="clip0_54_807">
<rect width="40" height="40" fill="white"/>
</clipPath>
</defs>
</svg>
