<svg width="39" height="34" viewBox="0 0 39 34" fill="none" xmlns="http://www.w3.org/2000/svg">
<path fill-rule="evenodd" clip-rule="evenodd" d="M19.0698 1C14.5552 1 10.8953 4.16524 10.8953 8.06977C10.8953 11.9743 14.5552 15.1395 19.0698 15.1395C23.5844 15.1395 27.2442 11.9743 27.2442 8.06977C27.2442 4.16524 23.5844 1 19.0698 1ZM14.3372 8.06977C14.3372 5.80925 16.456 3.97674 19.0698 3.97674C21.6835 3.97674 23.8023 5.80925 23.8023 8.06977C23.8023 10.3303 21.6835 12.1628 19.0698 12.1628C16.456 12.1628 14.3372 10.3303 14.3372 8.06977Z" fill="white"/>
<path d="M1 27.7907C1 24.4827 5.53462 18.1163 19.0698 18.1163C20.0202 18.1163 20.7907 18.7826 20.7907 19.6047C20.7907 20.4267 20.0202 21.093 19.0698 21.093C6.79096 21.093 4.44186 26.6336 4.44186 27.7907C4.44186 28.5687 4.73422 29.1015 5.12095 29.4359C5.50768 29.7704 6.12364 30.0233 7.02326 30.0233H17.3488C18.2993 30.0233 19.0698 30.6896 19.0698 31.5116C19.0698 32.3336 18.2993 33 17.3488 33H7.02326C5.34148 33 3.80627 32.5087 2.68719 31.5408C1.5681 30.573 1 29.2452 1 27.7907Z" fill="white"/>
<path d="M30.2558 19.6047C31.2063 19.6047 31.9767 20.271 31.9767 21.093V24.814H36.2791C37.2295 24.814 38 25.4803 38 26.3023C38 27.1243 37.2295 27.7907 36.2791 27.7907H31.9767V31.5116C31.9767 32.3336 31.2063 33 30.2558 33C29.3054 33 28.5349 32.3336 28.5349 31.5116V27.7907H24.2326C23.2821 27.7907 22.5116 27.1243 22.5116 26.3023C22.5116 25.4803 23.2821 24.814 24.2326 24.814H28.5349V21.093C28.5349 20.271 29.3054 19.6047 30.2558 19.6047Z" fill="white"/>
<path fill-rule="evenodd" clip-rule="evenodd" d="M19.0698 1C14.5552 1 10.8953 4.16524 10.8953 8.06977C10.8953 11.9743 14.5552 15.1395 19.0698 15.1395C23.5844 15.1395 27.2442 11.9743 27.2442 8.06977C27.2442 4.16524 23.5844 1 19.0698 1ZM14.3372 8.06977C14.3372 5.80925 16.456 3.97674 19.0698 3.97674C21.6835 3.97674 23.8023 5.80925 23.8023 8.06977C23.8023 10.3303 21.6835 12.1628 19.0698 12.1628C16.456 12.1628 14.3372 10.3303 14.3372 8.06977Z" stroke="black" stroke-width="0.5" stroke-linecap="round"/>
<path d="M1 27.7907C1 24.4827 5.53462 18.1163 19.0698 18.1163C20.0202 18.1163 20.7907 18.7826 20.7907 19.6047C20.7907 20.4267 20.0202 21.093 19.0698 21.093C6.79096 21.093 4.44186 26.6336 4.44186 27.7907C4.44186 28.5687 4.73422 29.1015 5.12095 29.4359C5.50768 29.7704 6.12364 30.0233 7.02326 30.0233H17.3488C18.2993 30.0233 19.0698 30.6896 19.0698 31.5116C19.0698 32.3336 18.2993 33 17.3488 33H7.02326C5.34148 33 3.80627 32.5087 2.68719 31.5408C1.5681 30.573 1 29.2452 1 27.7907Z" stroke="black" stroke-width="0.5" stroke-linecap="round"/>
<path d="M30.2558 19.6047C31.2063 19.6047 31.9767 20.271 31.9767 21.093V24.814H36.2791C37.2295 24.814 38 25.4803 38 26.3023C38 27.1243 37.2295 27.7907 36.2791 27.7907H31.9767V31.5116C31.9767 32.3336 31.2063 33 30.2558 33C29.3054 33 28.5349 32.3336 28.5349 31.5116V27.7907H24.2326C23.2821 27.7907 22.5116 27.1243 22.5116 26.3023C22.5116 25.4803 23.2821 24.814 24.2326 24.814H28.5349V21.093C28.5349 20.271 29.3054 19.6047 30.2558 19.6047Z" stroke="black" stroke-width="0.5" stroke-linecap="round"/>
</svg>
