<svg width="40" height="40" viewBox="0 0 40 40" fill="none" xmlns="http://www.w3.org/2000/svg">
<g clip-path="url(#clip0_54_789)">
<path fill-rule="evenodd" clip-rule="evenodd" d="M11.6666 6.66671C7.02535 6.66671 4.16659 10.6231 4.16659 15C4.16659 20.0854 7.04333 24.4909 10.5936 27.9738C14.1236 31.4367 18.112 33.7793 19.8587 34.7193C19.9162 34.7502 19.9612 34.7744 19.9999 34.7949C20.0386 34.7744 20.0836 34.7502 20.1411 34.7193C21.8878 33.7793 25.8762 31.4367 29.4062 27.9738C32.9565 24.4909 35.8333 20.0854 35.8333 15C35.8333 10.6231 32.9745 6.66671 28.3333 6.66671C25.4808 6.66671 23.0552 8.51619 21.5474 12.2857C21.2943 12.9185 20.6814 13.3334 19.9999 13.3334C19.3184 13.3334 18.7056 12.9185 18.4525 12.2857C16.9447 8.51619 14.519 6.66671 11.6666 6.66671ZM0.833252 15C0.833252 9.377 4.64116 3.33337 11.6666 3.33337C15.2291 3.33337 18.0521 5.17436 19.9999 8.08034C21.9477 5.17436 24.7707 3.33337 28.3333 3.33337C35.3587 3.33337 39.1666 9.377 39.1666 15C39.1666 21.3834 35.5694 26.5971 31.7405 30.3533C27.8913 34.1294 23.5952 36.6459 21.7207 37.6546C21.7017 37.6648 21.6819 37.6755 21.6614 37.6866C21.4139 37.821 21.0554 38.0156 20.5994 38.1069C20.2217 38.1824 19.7781 38.1824 19.4004 38.1069C18.9445 38.0156 18.5859 37.821 18.3384 37.6866C18.3179 37.6755 18.2982 37.6648 18.2792 37.6546C16.4047 36.6459 12.1085 34.1294 8.25931 30.3533C4.4304 26.5971 0.833252 21.3834 0.833252 15Z" fill="#FF0000"/>
</g>
<defs>
<clipPath id="clip0_54_789">
<rect width="40" height="40" fill="white"/>
</clipPath>
</defs>
</svg>