<svg width="53" height="54" viewBox="0 0 53 54" fill="none" xmlns="http://www.w3.org/2000/svg">
<path fill-rule="evenodd" clip-rule="evenodd" d="M15.4086 3.88306L45.0608 19.7341C46.5612 20.5361 47.8509 21.2255 48.8214 21.8583C49.8088 22.5022 50.8357 23.3142 51.4096 24.4838C52.1968 26.088 52.1968 27.912 51.4096 29.5162C50.8357 30.6858 49.8088 31.4978 48.8214 32.1417C47.8509 32.7745 46.5611 33.4639 45.0607 34.266L15.4087 50.1169C13.8275 50.9622 12.4763 51.6846 11.3474 52.1691C10.2082 52.658 8.86954 53.1018 7.39589 52.9794C5.38996 52.8129 3.55984 51.8897 2.36746 50.4429C1.49149 49.38 1.2299 48.129 1.11436 47.0071C0.999884 45.8954 0.999939 44.4914 1 42.8486V11.1514C0.999939 9.50856 0.999884 8.10459 1.11436 6.99294C1.2299 5.87097 1.49149 4.61997 2.36746 3.55711C3.55984 2.11033 5.38996 1.18714 7.39589 1.02055C8.86954 0.89817 10.2082 1.34195 11.3474 1.83093C12.4763 2.31542 13.8275 3.03779 15.4086 3.88306ZM7.90244 6.02544C7.51353 6.06195 7.15906 6.24076 6.92383 6.51909C6.90821 6.54906 6.80134 6.7685 6.73095 7.45205C6.64302 8.3059 6.64019 9.47602 6.64019 11.2686V42.7314C6.64019 44.524 6.64302 45.6941 6.73095 46.5479C6.80134 47.2315 6.90821 47.4509 6.92383 47.4809C7.15906 47.7592 7.51354 47.9381 7.90245 47.9746C7.93938 47.9711 8.20558 47.9398 8.89961 47.6419C9.76664 47.2698 10.8943 46.6699 12.6196 45.7476L42.0479 30.0163C43.6906 29.1382 44.7539 28.5668 45.4902 28.0867C46.0788 27.7029 46.227 27.5191 46.247 27.4925C46.3974 27.1779 46.3974 26.8221 46.247 26.5075C46.227 26.4809 46.0788 26.2971 45.4902 25.9133C44.7539 25.4332 43.6906 24.8618 42.0479 23.9837L12.6196 8.25237C10.8943 7.33007 9.76664 6.73022 8.89961 6.35809C8.20551 6.06018 7.93932 6.02892 7.90244 6.02544Z" fill="white" stroke="black" stroke-width="0.5" stroke-linecap="round" stroke-linejoin="round"/>
</svg>
