<svg width="41" height="37" viewBox="0 0 41 37" fill="none" xmlns="http://www.w3.org/2000/svg">
<g clip-path="url(#clip0_52_621)">
<g clip-path="url(#clip1_52_621)">
<path fill-rule="evenodd" clip-rule="evenodd" d="M19.753 1.93101C19.5902 1.80083 19.3264 1.80083 19.1637 1.93101L15.622 4.76434C15.4593 4.89451 15.4593 5.10557 15.622 5.23574L19.1637 8.06908C19.3264 8.19925 19.5902 8.19925 19.753 8.06908C19.9157 7.9389 19.9157 7.72785 19.753 7.59767L16.5059 5.00004L19.753 2.40241C19.9157 2.27223 19.9157 2.06118 19.753 1.93101Z" fill="white" stroke="black" stroke-width="0.2" stroke-linecap="round" stroke-linejoin="round"/>
</g>
<path fill-rule="evenodd" clip-rule="evenodd" d="M34.2609 23.6505C35.2435 20.6371 35.2464 17.39 34.2691 14.3749C33.2918 11.3598 31.3846 8.73178 28.8211 6.86788C26.2576 5.00398 23.1695 4 20 4C19.4477 4 19 4.44772 19 5C19 5.55229 19.4477 6 20 6C22.7469 6 25.4232 6.87011 27.6449 8.4855C29.8667 10.1009 31.5196 12.3785 32.3666 14.9916C33.2136 17.6046 33.2111 20.4188 32.3594 23.0304C31.5078 25.642 29.8508 27.9166 27.6263 29.5281C25.4017 31.1395 22.7238 32.0049 19.9769 32C17.23 31.9951 14.5552 31.1202 12.3364 29.5009C10.1176 27.8816 8.46866 25.601 7.62632 22.9865C6.78397 20.3719 6.79147 17.5577 7.64773 14.9477C7.81989 14.4229 7.53404 13.8579 7.00927 13.6858C6.48451 13.5136 5.91954 13.7995 5.74738 14.3242C4.75939 17.3358 4.75074 20.583 5.72267 23.5998C6.69461 26.6166 8.59717 29.248 11.1574 31.1164C13.7176 32.9849 16.8039 33.9943 19.9734 34C23.1429 34.0056 26.2327 33.0071 28.7995 31.1478C31.3664 29.2884 33.2783 26.6638 34.2609 23.6505Z" fill="white" stroke="black" stroke-width="0.5" stroke-linecap="round" stroke-linejoin="round"/>
</g>
<defs>
<clipPath id="clip0_52_621">
<rect width="41" height="37" fill="white" transform="matrix(-1 0 0 1 41 0)"/>
</clipPath>
<clipPath id="clip1_52_621">
<rect width="10" height="8" fill="white" transform="matrix(-1 0 0 1 23 1)"/>
</clipPath>
</defs>
</svg>
